<?xml version="1.0" encoding="utf-8" standalone="no"?>
<!DOCTYPE svg PUBLIC "-//W3C//DTD SVG 1.1//EN"
  "http://www.w3.org/Graphics/SVG/1.1/DTD/svg11.dtd">
<!-- Created with matplotlib (http://matplotlib.org/) -->
<svg height="288pt" version="1.1" viewBox="0 0 432 288" width="432pt" xmlns="http://www.w3.org/2000/svg" xmlns:xlink="http://www.w3.org/1999/xlink">
 <defs>
  <style type="text/css">
*{stroke-linecap:butt;stroke-linejoin:round;}
  </style>
 </defs>
 <g id="figure_1">
  <g id="patch_1">
   <path d="M 0 288 
L 432 288 
L 432 0 
L 0 0 
z
" style="fill:#ffffff;"/>
  </g>
  <g id="axes_1">
   <g id="patch_2">
    <path d="M 54 252 
L 388.8 252 
L 388.8 34.56 
L 54 34.56 
z
" style="fill:#ffffff;"/>
   </g>
   <g id="patch_3">
    <path clip-path="url(#pcc4db56f60)" d="M 145.309091 252 
L 146.830909 252 
L 146.830909 240.495238 
L 145.309091 240.495238 
z
" style="opacity:0.3;"/>
   </g>
   <g id="patch_4">
    <path clip-path="url(#pcc4db56f60)" d="M 146.830909 252 
L 148.352727 252 
L 148.352727 252 
L 146.830909 252 
z
" style="opacity:0.3;"/>
   </g>
   <g id="patch_5">
    <path clip-path="url(#pcc4db56f60)" d="M 148.352727 252 
L 149.874545 252 
L 149.874545 252 
L 148.352727 252 
z
" style="opacity:0.3;"/>
   </g>
   <g id="patch_6">
    <path clip-path="url(#pcc4db56f60)" d="M 149.874545 252 
L 151.396364 252 
L 151.396364 252 
L 149.874545 252 
z
" style="opacity:0.3;"/>
   </g>
   <g id="patch_7">
    <path clip-path="url(#pcc4db56f60)" d="M 151.396364 252 
L 152.918182 252 
L 152.918182 252 
L 151.396364 252 
z
" style="opacity:0.3;"/>
   </g>
   <g id="patch_8">
    <path clip-path="url(#pcc4db56f60)" d="M 152.918182 252 
L 154.44 252 
L 154.44 252 
L 152.918182 252 
z
" style="opacity:0.3;"/>
   </g>
   <g id="patch_9">
    <path clip-path="url(#pcc4db56f60)" d="M 154.44 252 
L 155.961818 252 
L 155.961818 240.495238 
L 154.44 240.495238 
z
" style="opacity:0.3;"/>
   </g>
   <g id="patch_10">
    <path clip-path="url(#pcc4db56f60)" d="M 155.961818 252 
L 157.483636 252 
L 157.483636 252 
L 155.961818 252 
z
" style="opacity:0.3;"/>
   </g>
   <g id="patch_11">
    <path clip-path="url(#pcc4db56f60)" d="M 157.483636 252 
L 159.005455 252 
L 159.005455 240.495238 
L 157.483636 240.495238 
z
" style="opacity:0.3;"/>
   </g>
   <g id="patch_12">
    <path clip-path="url(#pcc4db56f60)" d="M 159.005455 252 
L 160.527273 252 
L 160.527273 252 
L 159.005455 252 
z
" style="opacity:0.3;"/>
   </g>
   <g id="patch_13">
    <path clip-path="url(#pcc4db56f60)" d="M 160.527273 252 
L 162.049091 252 
L 162.049091 148.457143 
L 160.527273 148.457143 
z
" style="opacity:0.3;"/>
   </g>
   <g id="patch_14">
    <path clip-path="url(#pcc4db56f60)" d="M 162.049091 252 
L 163.570909 252 
L 163.570909 228.990476 
L 162.049091 228.990476 
z
" style="opacity:0.3;"/>
   </g>
   <g id="patch_15">
    <path clip-path="url(#pcc4db56f60)" d="M 163.570909 252 
L 165.092727 252 
L 165.092727 159.961905 
L 163.570909 159.961905 
z
" style="opacity:0.3;"/>
   </g>
   <g id="patch_16">
    <path clip-path="url(#pcc4db56f60)" d="M 165.092727 252 
L 166.614545 252 
L 166.614545 159.961905 
L 165.092727 159.961905 
z
" style="opacity:0.3;"/>
   </g>
   <g id="patch_17">
    <path clip-path="url(#pcc4db56f60)" d="M 166.614545 252 
L 168.136364 252 
L 168.136364 182.971429 
L 166.614545 182.971429 
z
" style="opacity:0.3;"/>
   </g>
   <g id="patch_18">
    <path clip-path="url(#pcc4db56f60)" d="M 168.136364 252 
L 169.658182 252 
L 169.658182 194.47619 
L 168.136364 194.47619 
z
" style="opacity:0.3;"/>
   </g>
   <g id="patch_19">
    <path clip-path="url(#pcc4db56f60)" d="M 169.658182 252 
L 171.18 252 
L 171.18 67.92381 
L 169.658182 67.92381 
z
" style="opacity:0.3;"/>
   </g>
   <g id="patch_20">
    <path clip-path="url(#pcc4db56f60)" d="M 171.18 252 
L 172.701818 252 
L 172.701818 90.933333 
L 171.18 90.933333 
z
" style="opacity:0.3;"/>
   </g>
   <g id="patch_21">
    <path clip-path="url(#pcc4db56f60)" d="M 172.701818 252 
L 174.223636 252 
L 174.223636 44.914286 
L 172.701818 44.914286 
z
" style="opacity:0.3;"/>
   </g>
   <g id="patch_22">
    <path clip-path="url(#pcc4db56f60)" d="M 174.223636 252 
L 175.745455 252 
L 175.745455 56.419048 
L 174.223636 56.419048 
z
" style="opacity:0.3;"/>
   </g>
   <g id="patch_23">
    <path clip-path="url(#pcc4db56f60)" d="M 175.745455 252 
L 177.267273 252 
L 177.267273 67.92381 
L 175.745455 67.92381 
z
" style="opacity:0.3;"/>
   </g>
   <g id="patch_24">
    <path clip-path="url(#pcc4db56f60)" d="M 177.267273 252 
L 178.789091 252 
L 178.789091 90.933333 
L 177.267273 90.933333 
z
" style="opacity:0.3;"/>
   </g>
   <g id="patch_25">
    <path clip-path="url(#pcc4db56f60)" d="M 178.789091 252 
L 180.310909 252 
L 180.310909 136.952381 
L 178.789091 136.952381 
z
" style="opacity:0.3;"/>
   </g>
   <g id="patch_26">
    <path clip-path="url(#pcc4db56f60)" d="M 180.310909 252 
L 181.832727 252 
L 181.832727 102.438095 
L 180.310909 102.438095 
z
" style="opacity:0.3;"/>
   </g>
   <g id="patch_27">
    <path clip-path="url(#pcc4db56f60)" d="M 181.832727 252 
L 183.354545 252 
L 183.354545 148.457143 
L 181.832727 148.457143 
z
" style="opacity:0.3;"/>
   </g>
   <g id="patch_28">
    <path clip-path="url(#pcc4db56f60)" d="M 183.354545 252 
L 184.876364 252 
L 184.876364 182.971429 
L 183.354545 182.971429 
z
" style="opacity:0.3;"/>
   </g>
   <g id="patch_29">
    <path clip-path="url(#pcc4db56f60)" d="M 184.876364 252 
L 186.398182 252 
L 186.398182 136.952381 
L 184.876364 136.952381 
z
" style="opacity:0.3;"/>
   </g>
   <g id="patch_30">
    <path clip-path="url(#pcc4db56f60)" d="M 186.398182 252 
L 187.92 252 
L 187.92 205.980952 
L 186.398182 205.980952 
z
" style="opacity:0.3;"/>
   </g>
   <g id="patch_31">
    <path clip-path="url(#pcc4db56f60)" d="M 187.92 252 
L 189.441818 252 
L 189.441818 228.990476 
L 187.92 228.990476 
z
" style="opacity:0.3;"/>
   </g>
   <g id="patch_32">
    <path clip-path="url(#pcc4db56f60)" d="M 189.441818 252 
L 190.963636 252 
L 190.963636 240.495238 
L 189.441818 240.495238 
z
" style="opacity:0.3;"/>
   </g>
   <g id="patch_33">
    <path clip-path="url(#pcc4db56f60)" d="M 190.963636 252 
L 192.485455 252 
L 192.485455 194.47619 
L 190.963636 194.47619 
z
" style="opacity:0.3;"/>
   </g>
   <g id="patch_34">
    <path clip-path="url(#pcc4db56f60)" d="M 192.485455 252 
L 194.007273 252 
L 194.007273 228.990476 
L 192.485455 228.990476 
z
" style="opacity:0.3;"/>
   </g>
   <g id="patch_35">
    <path clip-path="url(#pcc4db56f60)" d="M 194.007273 252 
L 195.529091 252 
L 195.529091 240.495238 
L 194.007273 240.495238 
z
" style="opacity:0.3;"/>
   </g>
   <g id="patch_36">
    <path clip-path="url(#pcc4db56f60)" d="M 195.529091 252 
L 197.050909 252 
L 197.050909 252 
L 195.529091 252 
z
" style="opacity:0.3;"/>
   </g>
   <g id="patch_37">
    <path clip-path="url(#pcc4db56f60)" d="M 197.050909 252 
L 198.572727 252 
L 198.572727 252 
L 197.050909 252 
z
" style="opacity:0.3;"/>
   </g>
   <g id="patch_38">
    <path clip-path="url(#pcc4db56f60)" d="M 198.572727 252 
L 200.094545 252 
L 200.094545 252 
L 198.572727 252 
z
" style="opacity:0.3;"/>
   </g>
   <g id="patch_39">
    <path clip-path="url(#pcc4db56f60)" d="M 200.094545 252 
L 201.616364 252 
L 201.616364 252 
L 200.094545 252 
z
" style="opacity:0.3;"/>
   </g>
   <g id="patch_40">
    <path clip-path="url(#pcc4db56f60)" d="M 201.616364 252 
L 203.138182 252 
L 203.138182 252 
L 201.616364 252 
z
" style="opacity:0.3;"/>
   </g>
   <g id="patch_41">
    <path clip-path="url(#pcc4db56f60)" d="M 203.138182 252 
L 204.66 252 
L 204.66 252 
L 203.138182 252 
z
" style="opacity:0.3;"/>
   </g>
   <g id="patch_42">
    <path clip-path="url(#pcc4db56f60)" d="M 204.66 252 
L 206.181818 252 
L 206.181818 252 
L 204.66 252 
z
" style="opacity:0.3;"/>
   </g>
   <g id="patch_43">
    <path clip-path="url(#pcc4db56f60)" d="M 206.181818 252 
L 207.703636 252 
L 207.703636 240.495238 
L 206.181818 240.495238 
z
" style="opacity:0.3;"/>
   </g>
   <g id="patch_44">
    <path clip-path="url(#pcc4db56f60)" d="M 207.703636 252 
L 209.225455 252 
L 209.225455 240.495238 
L 207.703636 240.495238 
z
" style="opacity:0.3;"/>
   </g>
   <g id="patch_45">
    <path clip-path="url(#pcc4db56f60)" d="M 209.225455 252 
L 210.747273 252 
L 210.747273 252 
L 209.225455 252 
z
" style="opacity:0.3;"/>
   </g>
   <g id="patch_46">
    <path clip-path="url(#pcc4db56f60)" d="M 210.747273 252 
L 212.269091 252 
L 212.269091 252 
L 210.747273 252 
z
" style="opacity:0.3;"/>
   </g>
   <g id="patch_47">
    <path clip-path="url(#pcc4db56f60)" d="M 212.269091 252 
L 213.790909 252 
L 213.790909 252 
L 212.269091 252 
z
" style="opacity:0.3;"/>
   </g>
   <g id="patch_48">
    <path clip-path="url(#pcc4db56f60)" d="M 213.790909 252 
L 215.312727 252 
L 215.312727 252 
L 213.790909 252 
z
" style="opacity:0.3;"/>
   </g>
   <g id="patch_49">
    <path clip-path="url(#pcc4db56f60)" d="M 215.312727 252 
L 216.834545 252 
L 216.834545 252 
L 215.312727 252 
z
" style="opacity:0.3;"/>
   </g>
   <g id="patch_50">
    <path clip-path="url(#pcc4db56f60)" d="M 216.834545 252 
L 218.356364 252 
L 218.356364 228.990476 
L 216.834545 228.990476 
z
" style="opacity:0.3;"/>
   </g>
   <g id="patch_51">
    <path clip-path="url(#pcc4db56f60)" d="M 218.356364 252 
L 219.878182 252 
L 219.878182 252 
L 218.356364 252 
z
" style="opacity:0.3;"/>
   </g>
   <g id="patch_52">
    <path clip-path="url(#pcc4db56f60)" d="M 219.878182 252 
L 221.4 252 
L 221.4 240.495238 
L 219.878182 240.495238 
z
" style="opacity:0.3;"/>
   </g>
   <g id="patch_53">
    <path clip-path="url(#pcc4db56f60)" d="M 221.4 252 
L 222.921818 252 
L 222.921818 205.980952 
L 221.4 205.980952 
z
" style="opacity:0.3;"/>
   </g>
   <g id="patch_54">
    <path clip-path="url(#pcc4db56f60)" d="M 222.921818 252 
L 224.443636 252 
L 224.443636 205.980952 
L 222.921818 205.980952 
z
" style="opacity:0.3;"/>
   </g>
   <g id="patch_55">
    <path clip-path="url(#pcc4db56f60)" d="M 224.443636 252 
L 225.965455 252 
L 225.965455 252 
L 224.443636 252 
z
" style="opacity:0.3;"/>
   </g>
   <g id="patch_56">
    <path clip-path="url(#pcc4db56f60)" d="M 225.965455 252 
L 227.487273 252 
L 227.487273 240.495238 
L 225.965455 240.495238 
z
" style="opacity:0.3;"/>
   </g>
   <g id="patch_57">
    <path clip-path="url(#pcc4db56f60)" d="M 227.487273 252 
L 229.009091 252 
L 229.009091 240.495238 
L 227.487273 240.495238 
z
" style="opacity:0.3;"/>
   </g>
   <g id="patch_58">
    <path clip-path="url(#pcc4db56f60)" d="M 229.009091 252 
L 230.530909 252 
L 230.530909 182.971429 
L 229.009091 182.971429 
z
" style="opacity:0.3;"/>
   </g>
   <g id="patch_59">
    <path clip-path="url(#pcc4db56f60)" d="M 230.530909 252 
L 232.052727 252 
L 232.052727 217.485714 
L 230.530909 217.485714 
z
" style="opacity:0.3;"/>
   </g>
   <g id="patch_60">
    <path clip-path="url(#pcc4db56f60)" d="M 232.052727 252 
L 233.574545 252 
L 233.574545 228.990476 
L 232.052727 228.990476 
z
" style="opacity:0.3;"/>
   </g>
   <g id="patch_61">
    <path clip-path="url(#pcc4db56f60)" d="M 233.574545 252 
L 235.096364 252 
L 235.096364 194.47619 
L 233.574545 194.47619 
z
" style="opacity:0.3;"/>
   </g>
   <g id="patch_62">
    <path clip-path="url(#pcc4db56f60)" d="M 235.096364 252 
L 236.618182 252 
L 236.618182 205.980952 
L 235.096364 205.980952 
z
" style="opacity:0.3;"/>
   </g>
   <g id="patch_63">
    <path clip-path="url(#pcc4db56f60)" d="M 236.618182 252 
L 238.14 252 
L 238.14 217.485714 
L 236.618182 217.485714 
z
" style="opacity:0.3;"/>
   </g>
   <g id="patch_64">
    <path clip-path="url(#pcc4db56f60)" d="M 238.14 252 
L 239.661818 252 
L 239.661818 136.952381 
L 238.14 136.952381 
z
" style="opacity:0.3;"/>
   </g>
   <g id="patch_65">
    <path clip-path="url(#pcc4db56f60)" d="M 239.661818 252 
L 241.183636 252 
L 241.183636 217.485714 
L 239.661818 217.485714 
z
" style="opacity:0.3;"/>
   </g>
   <g id="patch_66">
    <path clip-path="url(#pcc4db56f60)" d="M 241.183636 252 
L 242.705455 252 
L 242.705455 194.47619 
L 241.183636 194.47619 
z
" style="opacity:0.3;"/>
   </g>
   <g id="patch_67">
    <path clip-path="url(#pcc4db56f60)" d="M 242.705455 252 
L 244.227273 252 
L 244.227273 148.457143 
L 242.705455 148.457143 
z
" style="opacity:0.3;"/>
   </g>
   <g id="patch_68">
    <path clip-path="url(#pcc4db56f60)" d="M 244.227273 252 
L 245.749091 252 
L 245.749091 228.990476 
L 244.227273 228.990476 
z
" style="opacity:0.3;"/>
   </g>
   <g id="patch_69">
    <path clip-path="url(#pcc4db56f60)" d="M 245.749091 252 
L 247.270909 252 
L 247.270909 171.466667 
L 245.749091 171.466667 
z
" style="opacity:0.3;"/>
   </g>
   <g id="patch_70">
    <path clip-path="url(#pcc4db56f60)" d="M 247.270909 252 
L 248.792727 252 
L 248.792727 159.961905 
L 247.270909 159.961905 
z
" style="opacity:0.3;"/>
   </g>
   <g id="patch_71">
    <path clip-path="url(#pcc4db56f60)" d="M 248.792727 252 
L 250.314545 252 
L 250.314545 194.47619 
L 248.792727 194.47619 
z
" style="opacity:0.3;"/>
   </g>
   <g id="patch_72">
    <path clip-path="url(#pcc4db56f60)" d="M 250.314545 252 
L 251.836364 252 
L 251.836364 148.457143 
L 250.314545 148.457143 
z
" style="opacity:0.3;"/>
   </g>
   <g id="patch_73">
    <path clip-path="url(#pcc4db56f60)" d="M 251.836364 252 
L 253.358182 252 
L 253.358182 125.447619 
L 251.836364 125.447619 
z
" style="opacity:0.3;"/>
   </g>
   <g id="patch_74">
    <path clip-path="url(#pcc4db56f60)" d="M 253.358182 252 
L 254.88 252 
L 254.88 182.971429 
L 253.358182 182.971429 
z
" style="opacity:0.3;"/>
   </g>
   <g id="patch_75">
    <path clip-path="url(#pcc4db56f60)" d="M 254.88 252 
L 256.401818 252 
L 256.401818 125.447619 
L 254.88 125.447619 
z
" style="opacity:0.3;"/>
   </g>
   <g id="patch_76">
    <path clip-path="url(#pcc4db56f60)" d="M 256.401818 252 
L 257.923636 252 
L 257.923636 194.47619 
L 256.401818 194.47619 
z
" style="opacity:0.3;"/>
   </g>
   <g id="patch_77">
    <path clip-path="url(#pcc4db56f60)" d="M 257.923636 252 
L 259.445455 252 
L 259.445455 194.47619 
L 257.923636 194.47619 
z
" style="opacity:0.3;"/>
   </g>
   <g id="patch_78">
    <path clip-path="url(#pcc4db56f60)" d="M 259.445455 252 
L 260.967273 252 
L 260.967273 125.447619 
L 259.445455 125.447619 
z
" style="opacity:0.3;"/>
   </g>
   <g id="patch_79">
    <path clip-path="url(#pcc4db56f60)" d="M 260.967273 252 
L 262.489091 252 
L 262.489091 125.447619 
L 260.967273 125.447619 
z
" style="opacity:0.3;"/>
   </g>
   <g id="patch_80">
    <path clip-path="url(#pcc4db56f60)" d="M 262.489091 252 
L 264.010909 252 
L 264.010909 171.466667 
L 262.489091 171.466667 
z
" style="opacity:0.3;"/>
   </g>
   <g id="patch_81">
    <path clip-path="url(#pcc4db56f60)" d="M 264.010909 252 
L 265.532727 252 
L 265.532727 148.457143 
L 264.010909 148.457143 
z
" style="opacity:0.3;"/>
   </g>
   <g id="patch_82">
    <path clip-path="url(#pcc4db56f60)" d="M 265.532727 252 
L 267.054545 252 
L 267.054545 205.980952 
L 265.532727 205.980952 
z
" style="opacity:0.3;"/>
   </g>
   <g id="patch_83">
    <path clip-path="url(#pcc4db56f60)" d="M 267.054545 252 
L 268.576364 252 
L 268.576364 228.990476 
L 267.054545 228.990476 
z
" style="opacity:0.3;"/>
   </g>
   <g id="patch_84">
    <path clip-path="url(#pcc4db56f60)" d="M 268.576364 252 
L 270.098182 252 
L 270.098182 217.485714 
L 268.576364 217.485714 
z
" style="opacity:0.3;"/>
   </g>
   <g id="patch_85">
    <path clip-path="url(#pcc4db56f60)" d="M 270.098182 252 
L 271.62 252 
L 271.62 252 
L 270.098182 252 
z
" style="opacity:0.3;"/>
   </g>
   <g id="patch_86">
    <path clip-path="url(#pcc4db56f60)" d="M 271.62 252 
L 273.141818 252 
L 273.141818 240.495238 
L 271.62 240.495238 
z
" style="opacity:0.3;"/>
   </g>
   <g id="patch_87">
    <path clip-path="url(#pcc4db56f60)" d="M 273.141818 252 
L 274.663636 252 
L 274.663636 217.485714 
L 273.141818 217.485714 
z
" style="opacity:0.3;"/>
   </g>
   <g id="patch_88">
    <path clip-path="url(#pcc4db56f60)" d="M 274.663636 252 
L 276.185455 252 
L 276.185455 205.980952 
L 274.663636 205.980952 
z
" style="opacity:0.3;"/>
   </g>
   <g id="patch_89">
    <path clip-path="url(#pcc4db56f60)" d="M 276.185455 252 
L 277.707273 252 
L 277.707273 217.485714 
L 276.185455 217.485714 
z
" style="opacity:0.3;"/>
   </g>
   <g id="patch_90">
    <path clip-path="url(#pcc4db56f60)" d="M 277.707273 252 
L 279.229091 252 
L 279.229091 217.485714 
L 277.707273 217.485714 
z
" style="opacity:0.3;"/>
   </g>
   <g id="patch_91">
    <path clip-path="url(#pcc4db56f60)" d="M 279.229091 252 
L 280.750909 252 
L 280.750909 228.990476 
L 279.229091 228.990476 
z
" style="opacity:0.3;"/>
   </g>
   <g id="patch_92">
    <path clip-path="url(#pcc4db56f60)" d="M 280.750909 252 
L 282.272727 252 
L 282.272727 240.495238 
L 280.750909 240.495238 
z
" style="opacity:0.3;"/>
   </g>
   <g id="patch_93">
    <path clip-path="url(#pcc4db56f60)" d="M 282.272727 252 
L 283.794545 252 
L 283.794545 252 
L 282.272727 252 
z
" style="opacity:0.3;"/>
   </g>
   <g id="patch_94">
    <path clip-path="url(#pcc4db56f60)" d="M 283.794545 252 
L 285.316364 252 
L 285.316364 252 
L 283.794545 252 
z
" style="opacity:0.3;"/>
   </g>
   <g id="patch_95">
    <path clip-path="url(#pcc4db56f60)" d="M 285.316364 252 
L 286.838182 252 
L 286.838182 240.495238 
L 285.316364 240.495238 
z
" style="opacity:0.3;"/>
   </g>
   <g id="patch_96">
    <path clip-path="url(#pcc4db56f60)" d="M 286.838182 252 
L 288.36 252 
L 288.36 240.495238 
L 286.838182 240.495238 
z
" style="opacity:0.3;"/>
   </g>
   <g id="patch_97">
    <path clip-path="url(#pcc4db56f60)" d="M 288.36 252 
L 289.881818 252 
L 289.881818 252 
L 288.36 252 
z
" style="opacity:0.3;"/>
   </g>
   <g id="patch_98">
    <path clip-path="url(#pcc4db56f60)" d="M 289.881818 252 
L 291.403636 252 
L 291.403636 252 
L 289.881818 252 
z
" style="opacity:0.3;"/>
   </g>
   <g id="patch_99">
    <path clip-path="url(#pcc4db56f60)" d="M 291.403636 252 
L 292.925455 252 
L 292.925455 252 
L 291.403636 252 
z
" style="opacity:0.3;"/>
   </g>
   <g id="patch_100">
    <path clip-path="url(#pcc4db56f60)" d="M 292.925455 252 
L 294.447273 252 
L 294.447273 252 
L 292.925455 252 
z
" style="opacity:0.3;"/>
   </g>
   <g id="patch_101">
    <path clip-path="url(#pcc4db56f60)" d="M 294.447273 252 
L 295.969091 252 
L 295.969091 252 
L 294.447273 252 
z
" style="opacity:0.3;"/>
   </g>
   <g id="patch_102">
    <path clip-path="url(#pcc4db56f60)" d="M 295.969091 252 
L 297.490909 252 
L 297.490909 240.495238 
L 295.969091 240.495238 
z
" style="opacity:0.3;"/>
   </g>
   <g id="matplotlib.axis_1">
    <g id="xtick_1">
     <g id="line2d_1">
      <defs>
       <path d="M 0 0 
L 0 3.5 
" id="mcaa577a605" style="stroke:#000000;stroke-width:0.8;"/>
      </defs>
      <g>
       <use style="stroke:#000000;stroke-width:0.8;" x="57.860918" xlink:href="#mcaa577a605" y="252"/>
      </g>
     </g>
     <g id="text_1">
      <!-- −15 -->
      <defs>
       <path d="M 10.59375 35.5 
L 73.1875 35.5 
L 73.1875 27.203125 
L 10.59375 27.203125 
z
" id="DejaVuSans-2212"/>
       <path d="M 12.40625 8.296875 
L 28.515625 8.296875 
L 28.515625 63.921875 
L 10.984375 60.40625 
L 10.984375 69.390625 
L 28.421875 72.90625 
L 38.28125 72.90625 
L 38.28125 8.296875 
L 54.390625 8.296875 
L 54.390625 0 
L 12.40625 0 
z
" id="DejaVuSans-31"/>
       <path d="M 10.796875 72.90625 
L 49.515625 72.90625 
L 49.515625 64.59375 
L 19.828125 64.59375 
L 19.828125 46.734375 
Q 21.96875 47.46875 24.109375 47.828125 
Q 26.265625 48.1875 28.421875 48.1875 
Q 40.625 48.1875 47.75 41.5 
Q 54.890625 34.8125 54.890625 23.390625 
Q 54.890625 11.625 47.5625 5.09375 
Q 40.234375 -1.421875 26.90625 -1.421875 
Q 22.3125 -1.421875 17.546875 -0.640625 
Q 12.796875 0.140625 7.71875 1.703125 
L 7.71875 11.625 
Q 12.109375 9.234375 16.796875 8.0625 
Q 21.484375 6.890625 26.703125 6.890625 
Q 35.15625 6.890625 40.078125 11.328125 
Q 45.015625 15.765625 45.015625 23.390625 
Q 45.015625 31 40.078125 35.4375 
Q 35.15625 39.890625 26.703125 39.890625 
Q 22.75 39.890625 18.8125 39.015625 
Q 14.890625 38.140625 10.796875 36.28125 
z
" id="DejaVuSans-35"/>
      </defs>
      <g transform="translate(47.308574 266.598437)scale(0.1 -0.1)">
       <use xlink:href="#DejaVuSans-2212"/>
       <use x="83.789062" xlink:href="#DejaVuSans-31"/>
       <use x="147.412109" xlink:href="#DejaVuSans-35"/>
      </g>
     </g>
    </g>
    <g id="xtick_2">
     <g id="line2d_2">
      <g>
       <use style="stroke:#000000;stroke-width:0.8;" x="97.026232" xlink:href="#mcaa577a605" y="252"/>
      </g>
     </g>
     <g id="text_2">
      <!-- −10 -->
      <defs>
       <path d="M 31.78125 66.40625 
Q 24.171875 66.40625 20.328125 58.90625 
Q 16.5 51.421875 16.5 36.375 
Q 16.5 21.390625 20.328125 13.890625 
Q 24.171875 6.390625 31.78125 6.390625 
Q 39.453125 6.390625 43.28125 13.890625 
Q 47.125 21.390625 47.125 36.375 
Q 47.125 51.421875 43.28125 58.90625 
Q 39.453125 66.40625 31.78125 66.40625 
z
M 31.78125 74.21875 
Q 44.046875 74.21875 50.515625 64.515625 
Q 56.984375 54.828125 56.984375 36.375 
Q 56.984375 17.96875 50.515625 8.265625 
Q 44.046875 -1.421875 31.78125 -1.421875 
Q 19.53125 -1.421875 13.0625 8.265625 
Q 6.59375 17.96875 6.59375 36.375 
Q 6.59375 54.828125 13.0625 64.515625 
Q 19.53125 74.21875 31.78125 74.21875 
z
" id="DejaVuSans-30"/>
      </defs>
      <g transform="translate(86.473888 266.598437)scale(0.1 -0.1)">
       <use xlink:href="#DejaVuSans-2212"/>
       <use x="83.789062" xlink:href="#DejaVuSans-31"/>
       <use x="147.412109" xlink:href="#DejaVuSans-30"/>
      </g>
     </g>
    </g>
    <g id="xtick_3">
     <g id="line2d_3">
      <g>
       <use style="stroke:#000000;stroke-width:0.8;" x="136.191546" xlink:href="#mcaa577a605" y="252"/>
      </g>
     </g>
     <g id="text_3">
      <!-- −5 -->
      <g transform="translate(128.820452 266.598437)scale(0.1 -0.1)">
       <use xlink:href="#DejaVuSans-2212"/>
       <use x="83.789062" xlink:href="#DejaVuSans-35"/>
      </g>
     </g>
    </g>
    <g id="xtick_4">
     <g id="line2d_4">
      <g>
       <use style="stroke:#000000;stroke-width:0.8;" x="175.356859" xlink:href="#mcaa577a605" y="252"/>
      </g>
     </g>
     <g id="text_4">
      <!-- 0 -->
      <g transform="translate(172.175609 266.598437)scale(0.1 -0.1)">
       <use xlink:href="#DejaVuSans-30"/>
      </g>
     </g>
    </g>
    <g id="xtick_5">
     <g id="line2d_5">
      <g>
       <use style="stroke:#000000;stroke-width:0.8;" x="214.522173" xlink:href="#mcaa577a605" y="252"/>
      </g>
     </g>
     <g id="text_5">
      <!-- 5 -->
      <g transform="translate(211.340923 266.598437)scale(0.1 -0.1)">
       <use xlink:href="#DejaVuSans-35"/>
      </g>
     </g>
    </g>
    <g id="xtick_6">
     <g id="line2d_6">
      <g>
       <use style="stroke:#000000;stroke-width:0.8;" x="253.687487" xlink:href="#mcaa577a605" y="252"/>
      </g>
     </g>
     <g id="text_6">
      <!-- 10 -->
      <g transform="translate(247.324987 266.598437)scale(0.1 -0.1)">
       <use xlink:href="#DejaVuSans-31"/>
       <use x="63.623047" xlink:href="#DejaVuSans-30"/>
      </g>
     </g>
    </g>
    <g id="xtick_7">
     <g id="line2d_7">
      <g>
       <use style="stroke:#000000;stroke-width:0.8;" x="292.852801" xlink:href="#mcaa577a605" y="252"/>
      </g>
     </g>
     <g id="text_7">
      <!-- 15 -->
      <g transform="translate(286.490301 266.598437)scale(0.1 -0.1)">
       <use xlink:href="#DejaVuSans-31"/>
       <use x="63.623047" xlink:href="#DejaVuSans-35"/>
      </g>
     </g>
    </g>
    <g id="xtick_8">
     <g id="line2d_8">
      <g>
       <use style="stroke:#000000;stroke-width:0.8;" x="332.018115" xlink:href="#mcaa577a605" y="252"/>
      </g>
     </g>
     <g id="text_8">
      <!-- 20 -->
      <defs>
       <path d="M 19.1875 8.296875 
L 53.609375 8.296875 
L 53.609375 0 
L 7.328125 0 
L 7.328125 8.296875 
Q 12.9375 14.109375 22.625 23.890625 
Q 32.328125 33.6875 34.8125 36.53125 
Q 39.546875 41.84375 41.421875 45.53125 
Q 43.3125 49.21875 43.3125 52.78125 
Q 43.3125 58.59375 39.234375 62.25 
Q 35.15625 65.921875 28.609375 65.921875 
Q 23.96875 65.921875 18.8125 64.3125 
Q 13.671875 62.703125 7.8125 59.421875 
L 7.8125 69.390625 
Q 13.765625 71.78125 18.9375 73 
Q 24.125 74.21875 28.421875 74.21875 
Q 39.75 74.21875 46.484375 68.546875 
Q 53.21875 62.890625 53.21875 53.421875 
Q 53.21875 48.921875 51.53125 44.890625 
Q 49.859375 40.875 45.40625 35.40625 
Q 44.1875 33.984375 37.640625 27.21875 
Q 31.109375 20.453125 19.1875 8.296875 
z
" id="DejaVuSans-32"/>
      </defs>
      <g transform="translate(325.655615 266.598437)scale(0.1 -0.1)">
       <use xlink:href="#DejaVuSans-32"/>
       <use x="63.623047" xlink:href="#DejaVuSans-30"/>
      </g>
     </g>
    </g>
    <g id="xtick_9">
     <g id="line2d_9">
      <g>
       <use style="stroke:#000000;stroke-width:0.8;" x="371.183429" xlink:href="#mcaa577a605" y="252"/>
      </g>
     </g>
     <g id="text_9">
      <!-- 25 -->
      <g transform="translate(364.820929 266.598437)scale(0.1 -0.1)">
       <use xlink:href="#DejaVuSans-32"/>
       <use x="63.623047" xlink:href="#DejaVuSans-35"/>
      </g>
     </g>
    </g>
   </g>
   <g id="matplotlib.axis_2">
    <g id="ytick_1">
     <g id="line2d_10">
      <defs>
       <path d="M 0 0 
L -3.5 0 
" id="mfd62df2398" style="stroke:#000000;stroke-width:0.8;"/>
      </defs>
      <g>
       <use style="stroke:#000000;stroke-width:0.8;" x="54" xlink:href="#mfd62df2398" y="252"/>
      </g>
     </g>
     <g id="text_10">
      <!-- 0.00 -->
      <defs>
       <path d="M 10.6875 12.40625 
L 21 12.40625 
L 21 0 
L 10.6875 0 
z
" id="DejaVuSans-2e"/>
      </defs>
      <g transform="translate(24.734375 255.799219)scale(0.1 -0.1)">
       <use xlink:href="#DejaVuSans-30"/>
       <use x="63.623047" xlink:href="#DejaVuSans-2e"/>
       <use x="95.410156" xlink:href="#DejaVuSans-30"/>
       <use x="159.033203" xlink:href="#DejaVuSans-30"/>
      </g>
     </g>
    </g>
    <g id="ytick_2">
     <g id="line2d_11">
      <g>
       <use style="stroke:#000000;stroke-width:0.8;" x="54" xlink:href="#mfd62df2398" y="207.296782"/>
      </g>
     </g>
     <g id="text_11">
      <!-- 0.05 -->
      <g transform="translate(24.734375 211.096)scale(0.1 -0.1)">
       <use xlink:href="#DejaVuSans-30"/>
       <use x="63.623047" xlink:href="#DejaVuSans-2e"/>
       <use x="95.410156" xlink:href="#DejaVuSans-30"/>
       <use x="159.033203" xlink:href="#DejaVuSans-35"/>
      </g>
     </g>
    </g>
    <g id="ytick_3">
     <g id="line2d_12">
      <g>
       <use style="stroke:#000000;stroke-width:0.8;" x="54" xlink:href="#mfd62df2398" y="162.593563"/>
      </g>
     </g>
     <g id="text_12">
      <!-- 0.10 -->
      <g transform="translate(24.734375 166.392782)scale(0.1 -0.1)">
       <use xlink:href="#DejaVuSans-30"/>
       <use x="63.623047" xlink:href="#DejaVuSans-2e"/>
       <use x="95.410156" xlink:href="#DejaVuSans-31"/>
       <use x="159.033203" xlink:href="#DejaVuSans-30"/>
      </g>
     </g>
    </g>
    <g id="ytick_4">
     <g id="line2d_13">
      <g>
       <use style="stroke:#000000;stroke-width:0.8;" x="54" xlink:href="#mfd62df2398" y="117.890345"/>
      </g>
     </g>
     <g id="text_13">
      <!-- 0.15 -->
      <g transform="translate(24.734375 121.689564)scale(0.1 -0.1)">
       <use xlink:href="#DejaVuSans-30"/>
       <use x="63.623047" xlink:href="#DejaVuSans-2e"/>
       <use x="95.410156" xlink:href="#DejaVuSans-31"/>
       <use x="159.033203" xlink:href="#DejaVuSans-35"/>
      </g>
     </g>
    </g>
    <g id="ytick_5">
     <g id="line2d_14">
      <g>
       <use style="stroke:#000000;stroke-width:0.8;" x="54" xlink:href="#mfd62df2398" y="73.187126"/>
      </g>
     </g>
     <g id="text_14">
      <!-- 0.20 -->
      <g transform="translate(24.734375 76.986345)scale(0.1 -0.1)">
       <use xlink:href="#DejaVuSans-30"/>
       <use x="63.623047" xlink:href="#DejaVuSans-2e"/>
       <use x="95.410156" xlink:href="#DejaVuSans-32"/>
       <use x="159.033203" xlink:href="#DejaVuSans-30"/>
      </g>
     </g>
    </g>
    <g id="text_15">
     <!-- Density -->
     <defs>
      <path d="M 19.671875 64.796875 
L 19.671875 8.109375 
L 31.59375 8.109375 
Q 46.6875 8.109375 53.6875 14.9375 
Q 60.6875 21.78125 60.6875 36.53125 
Q 60.6875 51.171875 53.6875 57.984375 
Q 46.6875 64.796875 31.59375 64.796875 
z
M 9.8125 72.90625 
L 30.078125 72.90625 
Q 51.265625 72.90625 61.171875 64.09375 
Q 71.09375 55.28125 71.09375 36.53125 
Q 71.09375 17.671875 61.125 8.828125 
Q 51.171875 0 30.078125 0 
L 9.8125 0 
z
" id="DejaVuSans-44"/>
      <path d="M 56.203125 29.59375 
L 56.203125 25.203125 
L 14.890625 25.203125 
Q 15.484375 15.921875 20.484375 11.0625 
Q 25.484375 6.203125 34.421875 6.203125 
Q 39.59375 6.203125 44.453125 7.46875 
Q 49.3125 8.734375 54.109375 11.28125 
L 54.109375 2.78125 
Q 49.265625 0.734375 44.1875 -0.34375 
Q 39.109375 -1.421875 33.890625 -1.421875 
Q 20.796875 -1.421875 13.15625 6.1875 
Q 5.515625 13.8125 5.515625 26.8125 
Q 5.515625 40.234375 12.765625 48.109375 
Q 20.015625 56 32.328125 56 
Q 43.359375 56 49.78125 48.890625 
Q 56.203125 41.796875 56.203125 29.59375 
z
M 47.21875 32.234375 
Q 47.125 39.59375 43.09375 43.984375 
Q 39.0625 48.390625 32.421875 48.390625 
Q 24.90625 48.390625 20.390625 44.140625 
Q 15.875 39.890625 15.1875 32.171875 
z
" id="DejaVuSans-65"/>
      <path d="M 54.890625 33.015625 
L 54.890625 0 
L 45.90625 0 
L 45.90625 32.71875 
Q 45.90625 40.484375 42.875 44.328125 
Q 39.84375 48.1875 33.796875 48.1875 
Q 26.515625 48.1875 22.3125 43.546875 
Q 18.109375 38.921875 18.109375 30.90625 
L 18.109375 0 
L 9.078125 0 
L 9.078125 54.6875 
L 18.109375 54.6875 
L 18.109375 46.1875 
Q 21.34375 51.125 25.703125 53.5625 
Q 30.078125 56 35.796875 56 
Q 45.21875 56 50.046875 50.171875 
Q 54.890625 44.34375 54.890625 33.015625 
z
" id="DejaVuSans-6e"/>
      <path d="M 44.28125 53.078125 
L 44.28125 44.578125 
Q 40.484375 46.53125 36.375 47.5 
Q 32.28125 48.484375 27.875 48.484375 
Q 21.1875 48.484375 17.84375 46.4375 
Q 14.5 44.390625 14.5 40.28125 
Q 14.5 37.15625 16.890625 35.375 
Q 19.28125 33.59375 26.515625 31.984375 
L 29.59375 31.296875 
Q 39.15625 29.25 43.1875 25.515625 
Q 47.21875 21.78125 47.21875 15.09375 
Q 47.21875 7.46875 41.1875 3.015625 
Q 35.15625 -1.421875 24.609375 -1.421875 
Q 20.21875 -1.421875 15.453125 -0.5625 
Q 10.6875 0.296875 5.421875 2 
L 5.421875 11.28125 
Q 10.40625 8.6875 15.234375 7.390625 
Q 20.0625 6.109375 24.8125 6.109375 
Q 31.15625 6.109375 34.5625 8.28125 
Q 37.984375 10.453125 37.984375 14.40625 
Q 37.984375 18.0625 35.515625 20.015625 
Q 33.0625 21.96875 24.703125 23.78125 
L 21.578125 24.515625 
Q 13.234375 26.265625 9.515625 29.90625 
Q 5.8125 33.546875 5.8125 39.890625 
Q 5.8125 47.609375 11.28125 51.796875 
Q 16.75 56 26.8125 56 
Q 31.78125 56 36.171875 55.265625 
Q 40.578125 54.546875 44.28125 53.078125 
z
" id="DejaVuSans-73"/>
      <path d="M 9.421875 54.6875 
L 18.40625 54.6875 
L 18.40625 0 
L 9.421875 0 
z
M 9.421875 75.984375 
L 18.40625 75.984375 
L 18.40625 64.59375 
L 9.421875 64.59375 
z
" id="DejaVuSans-69"/>
      <path d="M 18.3125 70.21875 
L 18.3125 54.6875 
L 36.8125 54.6875 
L 36.8125 47.703125 
L 18.3125 47.703125 
L 18.3125 18.015625 
Q 18.3125 11.328125 20.140625 9.421875 
Q 21.96875 7.515625 27.59375 7.515625 
L 36.8125 7.515625 
L 36.8125 0 
L 27.59375 0 
Q 17.1875 0 13.234375 3.875 
Q 9.28125 7.765625 9.28125 18.015625 
L 9.28125 47.703125 
L 2.6875 47.703125 
L 2.6875 54.6875 
L 9.28125 54.6875 
L 9.28125 70.21875 
z
" id="DejaVuSans-74"/>
      <path d="M 32.171875 -5.078125 
Q 28.375 -14.84375 24.75 -17.8125 
Q 21.140625 -20.796875 15.09375 -20.796875 
L 7.90625 -20.796875 
L 7.90625 -13.28125 
L 13.1875 -13.28125 
Q 16.890625 -13.28125 18.9375 -11.515625 
Q 21 -9.765625 23.484375 -3.21875 
L 25.09375 0.875 
L 2.984375 54.6875 
L 12.5 54.6875 
L 29.59375 11.921875 
L 46.6875 54.6875 
L 56.203125 54.6875 
z
" id="DejaVuSans-79"/>
     </defs>
     <g transform="translate(18.654687 162.288594)rotate(-90)scale(0.1 -0.1)">
      <use xlink:href="#DejaVuSans-44"/>
      <use x="77.001953" xlink:href="#DejaVuSans-65"/>
      <use x="138.525391" xlink:href="#DejaVuSans-6e"/>
      <use x="201.904297" xlink:href="#DejaVuSans-73"/>
      <use x="254.003906" xlink:href="#DejaVuSans-69"/>
      <use x="281.787109" xlink:href="#DejaVuSans-74"/>
      <use x="320.996094" xlink:href="#DejaVuSans-79"/>
     </g>
    </g>
   </g>
   <g id="line2d_15">
    <path clip-path="url(#pcc4db56f60)" d="M 69.218182 252 
L 119.79312 251.895018 
L 125.27715 251.664757 
L 128.93317 251.305832 
L 131.675184 250.828836 
L 134.112531 250.167311 
L 135.940541 249.464773 
L 137.76855 248.529372 
L 139.291892 247.529279 
L 140.815233 246.287863 
L 142.338575 244.764067 
L 143.861916 242.915536 
L 145.385258 240.700454 
L 146.9086 238.079871 
L 148.431941 235.020439 
L 149.955283 231.497484 
L 151.783292 226.641143 
L 153.611302 221.10695 
L 155.74398 213.856816 
L 158.181327 204.712746 
L 166.712039 171.673949 
L 168.235381 166.884035 
L 169.758722 162.809568 
L 170.977396 160.151308 
L 172.196069 158.087173 
L 173.110074 156.955163 
L 174.024079 156.194887 
L 174.633415 155.899079 
L 175.242752 155.773947 
L 175.852088 155.820027 
L 176.461425 156.03692 
L 177.37543 156.679374 
L 178.289435 157.69461 
L 179.20344 159.069809 
L 180.422113 161.433326 
L 181.640786 164.35505 
L 183.164128 168.697635 
L 184.992138 174.736755 
L 187.429484 183.757902 
L 194.436855 210.495692 
L 196.569533 217.512722 
L 198.397543 222.783928 
L 199.920885 226.59226 
L 201.444226 229.843742 
L 202.967568 232.531388 
L 204.186241 234.279513 
L 205.404914 235.679078 
L 206.623587 236.741895 
L 207.84226 237.482383 
L 209.060934 237.91679 
L 210.279607 238.062507 
L 211.49828 237.937494 
L 212.716953 237.559803 
L 213.935627 236.947212 
L 215.1543 236.116956 
L 216.677641 234.798121 
L 218.200983 233.195353 
L 220.028993 230.937025 
L 222.161671 227.897332 
L 224.599017 223.970372 
L 227.341032 219.086565 
L 230.692383 212.634625 
L 240.746437 192.867866 
L 243.183784 188.762321 
L 245.011794 186.075909 
L 246.535135 184.156069 
L 248.058477 182.57171 
L 249.27715 181.57251 
L 250.495823 180.831551 
L 251.714496 180.364393 
L 252.93317 180.183477 
L 253.847174 180.24109 
L 255.065848 180.579883 
L 256.284521 181.219179 
L 257.503194 182.155887 
L 258.721867 183.38225 
L 260.245209 185.303252 
L 261.76855 187.623427 
L 263.59656 190.873006 
L 265.729238 195.191465 
L 268.471253 201.329959 
L 277.915971 223.060539 
L 280.353317 227.927785 
L 282.790663 232.284817 
L 284.923342 235.652047 
L 287.05602 238.601176 
L 289.188698 241.144725 
L 291.321376 243.305872 
L 293.454054 245.115281 
L 295.586732 246.608422 
L 297.71941 247.823272 
L 299.852088 248.798317 
L 302.289435 249.666748 
L 305.03145 250.391298 
L 308.078133 250.95703 
L 311.734152 251.398659 
L 316.304177 251.714202 
L 322.702211 251.911573 
L 333.974939 251.993155 
L 373.581818 252 
L 373.581818 252 
" style="fill:none;stroke:#000000;stroke-dasharray:5.55,2.4;stroke-dashoffset:0;stroke-width:1.5;"/>
   </g>
   <g id="patch_103">
    <path d="M 54 252 
L 54 34.56 
" style="fill:none;stroke:#000000;stroke-linecap:square;stroke-linejoin:miter;stroke-width:0.8;"/>
   </g>
   <g id="patch_104">
    <path d="M 388.8 252 
L 388.8 34.56 
" style="fill:none;stroke:#000000;stroke-linecap:square;stroke-linejoin:miter;stroke-width:0.8;"/>
   </g>
   <g id="patch_105">
    <path d="M 54 252 
L 388.8 252 
" style="fill:none;stroke:#000000;stroke-linecap:square;stroke-linejoin:miter;stroke-width:0.8;"/>
   </g>
   <g id="patch_106">
    <path d="M 54 34.56 
L 388.8 34.56 
" style="fill:none;stroke:#000000;stroke-linecap:square;stroke-linejoin:miter;stroke-width:0.8;"/>
   </g>
  </g>
 </g>
 <defs>
  <clipPath id="pcc4db56f60">
   <rect height="217.44" width="334.8" x="54" y="34.56"/>
  </clipPath>
 </defs>
</svg>
